<svg width="159" height="225" viewBox="0 0 159 225" fill="none" xmlns="http://www.w3.org/2000/svg">
<path fill-rule="evenodd" clip-rule="evenodd" d="M15.3955 48.3326L12.5312 55.4974C12.5312 55.4974 18.1703 55.6765 19.3339 63.3787C20.4975 71.0808 15.5746 75.4693 17.5438 85.5896C19.5129 95.7099 22.0455 96.2146 28.2848 103.86C36.3941 113.796 36.2511 115.234 38.6678 118.548C41.0846 121.861 42.6062 124.28 42.6062 124.28L49.7669 119.981L49.0509 117.831C49.0509 117.831 53.9739 118.1 57.6437 119.264C61.3136 120.428 63.7303 122.488 63.7303 122.488C63.7303 122.488 84.1573 151.111 96.8899 168.983C111.791 189.899 123.486 190.677 132.115 189.479C147.6 187.33 138.202 173.717 138.202 173.717L85.9285 117.115C85.9285 117.115 92.533 118.225 87.3607 109.95C77.9173 94.0332 63.9307 81.3185 50.483 68.7523C45.2042 63.8196 47.5333 57.2908 43.6803 53.348C39.8273 49.4051 37.3252 46.4518 30.433 45.4667C23.5408 44.4815 15.3955 48.3326 15.3955 48.3326Z" fill="#F4AD47"/>
<path fill-rule="evenodd" clip-rule="evenodd" d="M0 56.9303C0 56.9303 1.87968 53.3479 5.37052 51.1984C8.86137 49.049 15.3955 48.3325 15.3955 48.3325L13.9634 50.8402L20.05 51.9149C20.05 51.9149 12.5312 52.4523 7.51875 53.7061C2.50625 54.96 0 56.9303 0 56.9303Z" fill="#EA7168"/>
<path fill-rule="evenodd" clip-rule="evenodd" d="M1.07422 56.2139L12.5314 55.8557L18.618 57.6469L16.4697 55.1392L20.7662 51.915C20.7662 51.915 11.7258 52.2733 6.80279 53.348C1.8798 54.4227 1.07422 56.2139 1.07422 56.2139Z" fill="#EA7168"/>
<path fill-rule="evenodd" clip-rule="evenodd" d="M46.1867 121.772L47.9769 124.638L32.9394 135.743C32.9394 135.743 39.1155 136.37 41.1742 137.535C43.2329 138.699 42.2483 140.042 41.1742 140.4C40.1001 140.759 39.8316 139.684 36.8778 138.968C33.924 138.251 33.2079 137.714 29.359 137.535C25.5101 137.355 24.3465 137.535 21.4822 138.251C18.618 138.968 19.825 140.416 18.6614 140.147C17.4978 139.878 15.8432 138.52 16.8278 137.176C17.8124 135.833 21.8403 135.027 21.8403 135.027L31.1492 134.669L44.0385 124.996L43.3224 123.205L46.1867 121.772Z" fill="#EA7168" stroke="#EA7168"/>
<path fill-rule="evenodd" clip-rule="evenodd" d="M50.483 71.9885C45.3725 71.9982 38.5603 72.2207 34.1296 73.1778C26.2528 74.8795 25.8961 78.9105 25.8961 78.9105C25.8961 78.9105 23.9228 84.1935 26.25 90.015C28.5773 95.8364 27.5069 96.8215 35.2047 102.195C50.7215 111.058 68.557 113.259 85.8608 116.386C94.0618 117.869 85.3414 108.191 83.5399 104.344C75.2302 90.3379 66.5043 83.5964 54.6965 72.3869C53.5457 72.3642 52.1095 71.9855 50.483 71.9885Z" fill="#EA7168"/>
<path fill-rule="evenodd" clip-rule="evenodd" d="M16.7546 137.257L16.8812 138.777C16.8812 138.777 15.2356 138.207 14.3495 138.904C13.4634 139.6 13.3369 141.563 13.3369 141.563C13.3369 141.563 12.609 139.347 13.4635 138.27C14.3179 137.194 16.7546 137.257 16.7546 137.257Z" fill="#F4AD47"/>
<path fill-rule="evenodd" clip-rule="evenodd" d="M42.578 138.777C42.578 138.777 43.6223 137.89 44.2236 138.523C44.8249 139.157 44.9831 141.31 44.9831 141.31C44.9831 141.31 44.4768 139.917 43.7173 139.537C42.9577 139.157 41.9451 139.79 41.9451 139.79L42.578 138.777Z" fill="#EA7168"/>
</svg>
