<?xml version="1.0" encoding="iso-8859-1"?>
<!-- Generator: Adobe Illustrator 19.0.0, SVG Export Plug-In . SVG Version: 6.00 Build 0)  -->
<svg version="1.1" id="Layer_1" xmlns="http://www.w3.org/2000/svg" xmlns:xlink="http://www.w3.org/1999/xlink" x="0px" y="0px"
	 viewBox="0 0 512 512" style="enable-background:new 0 0 512 512;" xml:space="preserve">
<path style="fill:#F4AD47;" d="M377.866,294.33c-63.042,5.373-133.527,15.042-196.569,20.415
	c-16.42-28.439-32.839-56.879-49.259-85.318c36.174-51.91,79.79-108.116,115.964-160.027
	C291.354,144.487,334.514,219.243,377.866,294.33z"/>
<rect x="51.003" y="251.204" transform="matrix(0.866 -0.5 0.5 0.866 -135.7894 94.0671)" style="fill:#E8594F;" width="113.258" height="98.419"/>
<rect x="165.012" y="325.021" transform="matrix(-0.866 0.5 -0.5 -0.866 555.4667 677.3683)" style="fill:#EFEFEF;" width="43.938" height="176.168"/>
<rect x="199.885" y="359.577" transform="matrix(-0.866 0.5 -0.5 -0.866 611.9296 605.1799)" style="fill:#E8594F;" width="49.997" height="49.997"/>
<path style="fill:#F4AD47;" d="M46.079,307.071l-25.258,14.583c-9.962,5.751-13.375,18.489-7.623,28.45l4.169,7.22
	c5.751,9.962,18.489,13.375,28.45,7.623l25.258-14.583L46.079,307.071z"/>
<g>
	<path style="fill:#231F20;" d="M257.02,64.193c-1.782-3.085-5.017-5.045-8.576-5.198c-3.537-0.165-6.948,1.528-8.986,4.45
		c-18.008,25.841-38.248,53.267-57.821,79.79c-19.199,26.016-39.022,52.885-56.865,78.417l-96.008,55.43
		c-2.391,1.381-4.137,3.655-4.853,6.322c-0.715,2.667-0.341,5.509,1.04,7.901l6.9,11.952l-16.24,9.376
		C0.696,321.248-4.433,340.392,4.179,355.31l4.169,7.222c5.563,9.636,15.938,15.623,27.074,15.624h0.001
		c5.459,0,10.854-1.449,15.6-4.19l16.239-9.376l6.902,11.953c1.929,3.34,5.429,5.208,9.029,5.208c1.766,0,3.558-0.45,5.198-1.395
		l31.711-18.307l82.878,143.548c1.929,3.34,5.429,5.208,9.029,5.208c1.766,0,3.558-0.45,5.198-1.395l38.051-21.969
		c2.391-1.382,4.137-3.656,4.853-6.324c0.715-2.667,0.341-5.509-1.04-7.901l-29.214-50.601l34.382-19.85
		c2.391-1.382,4.137-3.656,4.853-6.324c0.715-2.667,0.341-5.509-1.04-7.901l-24.996-43.296c-1.381-2.393-3.655-4.138-6.322-4.853
		c-2.668-0.715-5.51-0.341-7.903,1.041l-34.383,19.851l-18.254-31.617l8.212-4.742c31.032-2.687,64.215-6.419,96.345-10.037
		c32.755-3.69,66.623-7.506,98.005-10.181c3.55-0.302,6.699-2.399,8.348-5.557c1.649-3.159,1.569-6.941-0.213-10.026L257.02,64.193z
		 M230.221,364.675l14.583,25.257l-25.259,14.583l-14.583-25.258L230.221,364.675z M56.851,346.554l-16.239,9.375
		c-1.608,0.928-3.353,1.399-5.186,1.399l0,0c-3.72-0.001-7.184-1.997-9.039-5.211l-4.169-7.222
		c-2.872-4.972-1.161-11.355,3.81-14.225l16.24-9.376l13.358,23.138L56.851,346.554z M86.994,357.111l-6.898-11.947
		c-0.001-0.003-0.003-0.004-0.003-0.007l-24.996-43.294c0-0.001-0.001-0.001-0.003-0.003l-6.899-11.95l80.053-46.218l19.399,33.599
		l19.399,33.599l-11.197,6.464l-37.145,21.445c-0.004,0.001-0.007,0.004-0.01,0.007L86.994,357.111z M235.823,474.609
		l-20.015,11.556l-77.672-134.532l20.015-11.555L235.823,474.609z M321.72,289.385l-64.698-112.062
		c-2.874-4.979-9.245-6.686-14.225-3.811c-4.98,2.875-6.687,9.245-3.811,14.225l60.12,104.13c-6.924,0.772-13.831,1.55-20.689,2.324
		c-30.475,3.433-61.913,6.973-91.415,9.605l-21.314-36.916l-21.314-36.916c17.029-24.232,35.814-49.687,54.023-74.361
		c16.325-22.12,33.111-44.867,48.741-66.877l113.56,196.691C347.909,286.622,334.843,287.972,321.72,289.385z"/>
	<path style="fill:#231F20;" d="M348.563,161.296c1.929,3.34,5.429,5.208,9.029,5.208c1.766,0,3.558-0.45,5.198-1.397l97.412-56.242
		c4.98-2.875,6.687-9.245,3.811-14.225s-9.246-6.687-14.225-3.811l-97.412,56.242C347.394,149.946,345.688,156.314,348.563,161.296z
		"/>
	<path style="fill:#231F20;" d="M333.904,118.043c1.64,0.948,3.43,1.397,5.198,1.397c3.599,0,7.099-1.868,9.029-5.208l56.242-97.414
		c2.875-4.98,1.169-11.349-3.811-14.225c-4.98-2.877-11.349-1.17-14.225,3.811l-56.242,97.414
		C327.217,108.798,328.923,115.168,333.904,118.043z"/>
	<path style="fill:#231F20;" d="M501.587,185.201H389.103c-5.751,0-10.414,4.663-10.414,10.414c0,5.751,4.663,10.414,10.414,10.414
		h112.483c5.751,0,10.414-4.663,10.414-10.414C512,189.864,507.339,185.201,501.587,185.201z"/>
</g>
<g>
</g>
<g>
</g>
<g>
</g>
<g>
</g>
<g>
</g>
<g>
</g>
<g>
</g>
<g>
</g>
<g>
</g>
<g>
</g>
<g>
</g>
<g>
</g>
<g>
</g>
<g>
</g>
<g>
</g>
</svg>
