<svg width="654" height="1024" viewBox="0 0 654 1024" fill="none" xmlns="http://www.w3.org/2000/svg">
<g clip-path="url(#clip0_44_241)">
<path d="M556.383 256.241C556.383 172.627 492.93 103.854 411.549 95.4066C388.709 33.8124 329.597 -10.1744 260.038 -10.1744C229.589 -10.1744 201.211 -1.60227 176.905 13.0245C149.261 -36.4791 96.4187 -70 35.6819 -70C-44.8418 -70 -111.437 -11.0671 -123.795 65.9756C-130.367 65.1725 -137.01 64.6179 -143.796 64.6179C-233.107 64.6179 -305.524 137.018 -305.524 226.345C-305.524 230.721 -305.202 235.007 -304.863 239.293C-350.151 267.957 -380.297 318.353 -380.297 375.911C-380.297 426.791 -356.758 472.115 -320.025 501.761C-320.186 504.672 -320.472 507.563 -320.472 510.512C-320.472 599.823 -248.072 672.24 -158.744 672.24C-131.975 672.24 -106.794 665.632 -84.5593 654.132C-53.7538 676.259 -9.642 703.94 11.7155 698.421C11.7155 698.421 19.6619 821.503 17.9475 852.757C14.6793 912.226 -3.16156 978.427 -15.7153 1032H178.73C178.73 1032 150.066 912.565 148.815 872.687C147.566 832.807 161.281 759.373 161.281 759.373L228.734 689.601C254.698 707.352 286.058 717.442 319.884 717.442C403.496 717.442 472.271 653.829 480.718 572.446C542.31 549.606 586.297 490.333 586.297 420.774C586.297 379.699 570.867 342.338 545.65 313.802C552.472 295.905 556.383 276.547 556.383 256.241ZM-47.2006 627.431C-34.236 615.055 -23.3593 600.591 -15.0561 584.535L16.6962 651.058C16.6794 651.06 -0.589935 658.685 -47.2006 627.431ZM71.5241 668.506C55.0933 671.489 27.1097 620.895 7.25009 579.765C29.2705 590.999 54.1296 597.464 80.5594 597.464C87.3461 597.464 94.0077 596.911 100.58 596.09C95.4719 629.004 86.4721 665.774 71.5241 668.506ZM141.334 700.884C103.329 711.438 126.081 632.716 136.975 587.142C144.852 584.214 152.477 580.768 159.727 576.676C164.103 609.893 178.532 639.86 199.91 663.557C181.389 680.009 160.065 695.687 141.334 700.884Z" fill="#E8594F"/>
</g>
<path d="M101.184 858.368C117.37 831.391 149.708 836.487 165.639 854.658C183.475 862.078 202.311 865.343 221.653 860.951L220.126 858.716L286.429 787.765L296.626 816.529L295.332 817.924L295.517 818.1L247.636 869.463C251.795 878.854 249.189 891.608 236.453 895.357C214.29 901.893 191.987 901.03 170.62 895.278C170.128 896.251 169.639 897.223 169.063 898.2C160.648 912.217 155.31 926.225 151.956 940.673C161.101 932.395 170.136 924.016 178.929 915.368C190.156 904.318 206.84 907.825 215.263 920.051C230.331 941.901 248.595 961.788 260.403 985.72C274.692 985.72 288.977 985.72 303.263 985.72C333.101 985.72 333.101 1032 303.263 1032C238.086 1032 172.9 1032 107.719 1032C107.235 1032 106.751 1032 106.267 1032C105.083 1032 103.908 1032 102.719 1032C98.4066 1032 94.7275 1031.01 91.6557 1029.35C78.3474 1024.45 67.8866 1012.79 68.001 994.254C68.3091 945.593 75.8389 900.603 101.184 858.368ZM226.401 859.71C226.468 859.693 226.538 859.684 226.6 859.662C228.923 858.98 231.106 858.747 233.144 858.857L282.477 805.945L290.672 813.58L284.612 796.483L226.032 859.169L226.401 859.71ZM206.488 985.725C201.963 979.185 197.18 972.817 192.348 966.475C185.289 973.006 178.111 979.405 170.832 985.725C182.718 985.725 194.601 985.725 206.488 985.725Z" fill="#F4AD47"/>
<path d="M160.578 837.79C142.686 837.79 128.183 823.286 128.183 805.395C128.183 787.504 142.686 773 160.578 773C178.469 773 192.972 787.504 192.972 805.395C192.972 823.286 178.469 837.79 160.578 837.79Z" fill="#F4AD47"/>
<defs>
<clipPath id="clip0_44_241">
<rect width="1102" height="1102" fill="white" transform="translate(-448 -70)"/>
</clipPath>
</defs>
</svg>
